<svg width="197" height="203" viewBox="0 0 197 203" fill="none" xmlns="http://www.w3.org/2000/svg">
<g clip-path="url(#clip0_55_28)" filter="url(#filter0_d_55_28)">
<path d="M127.319 122.713C124.78 122.713 122.663 124.313 121.855 126.521V122.599C121.855 119.209 119.085 116.429 115.622 116.429C112.89 116.429 110.62 118.143 109.774 120.542V118.447C109.774 115.058 107.004 112.277 103.541 112.277C100.809 112.277 98.5387 113.991 97.6922 116.391L97.7307 92.2441C97.7307 88.8164 94.9604 86.0742 91.4975 86.0742C88.0731 86.0742 85.2643 88.8164 85.2643 92.2441L85.2258 127.931C84.2254 127.283 83.0711 126.902 81.8014 126.902C78.377 126.902 75.5682 129.645 75.5682 133.072V141.146C75.2988 142.594 75.5682 144.117 76.4147 145.488L88.6117 164.607L88.5733 197.971L128.82 198.009L128.858 168.035C131.359 167.388 133.206 165.141 133.206 162.475L133.245 128.578C133.168 125.303 130.551 122.713 127.319 122.713Z" fill="#FFDBC5"/>
<path d="M153.906 61.6992C153.906 70.9541 146.326 78.457 136.977 78.457H55.4062C46.0564 78.457 38.4766 70.9541 38.4766 61.6992V53.3203C38.4766 44.0654 46.0564 36.5625 55.4062 36.5625H136.977C146.326 36.5625 153.906 44.0654 153.906 53.3203V61.6992Z" fill="#EDE8EC"/>
<path d="M53.9057 47.6074C56.6375 47.6074 58.9846 48.5596 60.9084 50.4639C62.8322 52.3682 63.7941 54.6914 63.7941 57.3955C63.7941 60.0996 62.8322 62.3467 60.9084 64.251C58.9846 66.1553 56.6375 67.0312 53.9057 67.0312H51.9818C50.9814 67.0312 50.2119 66.7646 49.4809 66.041C48.7883 65.3555 48.4805 64.5937 48.4805 63.6035V51.0732C48.4805 50.083 48.7883 49.2832 49.4809 48.5977C50.1734 47.9121 50.9814 47.6074 51.9818 47.6074H53.9057ZM51.5586 63.6416C51.5586 63.7939 51.5586 63.832 51.674 63.9082C51.751 63.9844 51.8664 63.9844 51.9818 63.9844H53.9057C55.791 63.9844 57.407 63.375 58.7152 62.0801C60.0619 60.7852 60.716 59.1855 60.716 57.3193C60.716 55.4531 60.0619 53.8916 58.7152 52.5586C57.3686 51.2637 55.791 50.6162 53.9057 50.6162H51.9818C51.8279 50.6162 51.751 50.6543 51.674 50.7305C51.5971 50.8066 51.5586 50.9209 51.5586 51.0732V63.6416ZM82.4937 50.4258C84.4176 52.3301 85.3795 54.6533 85.3795 57.3574C85.3795 60.0615 84.4176 62.3848 82.4937 64.2891C80.5314 66.1934 78.2229 67.1455 75.491 67.1455C72.7592 67.1455 70.4121 66.1934 68.4883 64.2891C66.5645 62.3848 65.6025 60.0615 65.6025 57.3574C65.6025 54.6533 66.5645 52.3301 68.4883 50.4258C70.4121 48.5215 72.7592 47.5693 75.491 47.5693C78.2229 47.5693 80.5314 48.5215 82.4937 50.4258ZM70.6814 52.5967C69.3348 53.9297 68.6807 55.4912 68.6807 57.3574C68.6807 59.2236 69.3348 60.8232 70.6814 62.1182C71.9896 63.4131 73.6057 64.0605 75.491 64.0605C77.3764 64.0605 78.9924 63.4131 80.3006 62.1182C81.6473 60.8232 82.3014 59.2236 82.3014 57.3574C82.3014 55.4912 81.6473 53.8916 80.3006 52.5967C78.9924 51.3018 77.3764 50.6162 75.491 50.6162C73.6057 50.6162 71.9896 51.3018 70.6814 52.5967ZM100.809 65.6602C100.809 66.0791 100.732 66.3838 100.424 66.6504C100.116 66.9551 99.8082 67.0312 99.4234 67.0312H99.385C98.9617 67.0312 98.577 66.9551 98.2691 66.6504C97.9613 66.3838 97.7689 66.0791 97.7689 65.6602V54.0439C97.7689 53.0918 97.4996 52.292 96.807 51.6064C96.1145 50.9209 95.3449 50.6162 94.383 50.6162C93.4211 50.6162 92.5746 50.959 91.882 51.6064C91.2279 52.292 90.8432 53.0918 90.8432 54.0439V65.6602C90.8432 66.0791 90.7277 66.3838 90.4584 66.6504C90.1506 66.9551 89.8428 67.0312 89.4195 67.0312H89.3811C88.9578 67.0312 88.573 66.9551 88.2652 66.6504C87.9574 66.3838 87.765 66.0791 87.765 65.6602V54.0439C87.765 52.2539 88.4576 50.7305 89.7273 49.4355C90.9971 48.1787 92.5746 47.5312 94.383 47.5312C96.1914 47.5312 97.692 48.1787 98.9617 49.4355C100.231 50.6924 100.847 52.2539 100.847 54.0439V65.6602H100.809ZM116.969 65.6602C116.969 66.0791 116.776 66.3838 116.469 66.6504C116.161 66.9551 115.738 67.0312 115.314 67.0312H115.276C114.853 67.0312 114.583 66.9551 114.275 66.6504C113.968 66.3838 113.891 66.0791 113.891 65.6602V60.1758H106.965V65.6602C106.965 66.0791 106.734 66.3838 106.426 66.6504C106.118 66.9551 105.695 67.0312 105.272 67.0312H105.233C104.81 67.0312 104.541 66.9551 104.233 66.6504C103.925 66.3838 103.848 66.0791 103.848 65.6602V54.0439C103.848 52.2539 104.425 50.7305 105.695 49.4355C106.965 48.1787 108.465 47.5312 110.274 47.5312C112.082 47.5312 113.66 48.1787 114.968 49.4355C116.238 50.6924 116.93 52.2539 116.93 54.0439V65.6602H116.969ZM113.891 57.1289V54.0439C113.891 53.0918 113.467 52.292 112.813 51.6064C112.121 50.9209 111.274 50.6162 110.312 50.6162C109.35 50.6162 108.581 50.959 107.927 51.6064C107.273 52.292 106.965 53.0918 106.965 54.0439V57.1289H113.891ZM131.205 49.0928C131.205 49.5117 131.013 49.8926 130.705 50.1973C130.397 50.502 130.012 50.6543 129.589 50.6543H126.588V65.6602C126.588 66.0791 126.396 66.3457 126.088 66.6504C125.78 66.9551 125.357 67.0312 124.933 67.0312H124.895C124.472 67.0312 124.164 66.9551 123.856 66.6504C123.548 66.3457 123.471 66.0791 123.471 65.6602V50.6543H120.239C119.816 50.6543 119.547 50.502 119.239 50.1973C118.931 49.8926 118.854 49.5117 118.854 49.0928V49.0547C118.854 48.6357 118.931 48.293 119.239 47.9883C119.547 47.6836 119.816 47.5693 120.239 47.5693H129.512C129.935 47.5693 130.359 47.6836 130.628 47.9883C131.013 48.3311 131.205 48.6738 131.205 49.0928ZM136.207 55.9863H142.171C142.594 55.9863 142.863 56.0625 143.171 56.3672C143.479 56.6719 143.518 56.9385 143.518 57.3574V57.3955C143.518 57.8145 143.441 58.2334 143.171 58.5381C142.863 58.8428 142.594 59.0332 142.171 59.0332H136.207V62.5752C136.207 62.9941 136.322 63.2988 136.592 63.6035C136.9 63.9082 137.207 63.9844 137.631 63.9844H142.171C142.594 63.9844 142.863 64.1748 143.171 64.4795C143.479 64.7842 143.518 65.2031 143.518 65.6221V65.6602C143.518 66.0791 143.441 66.3838 143.171 66.6504C142.863 66.9551 142.594 67.0312 142.171 67.0312H137.631C136.361 67.0312 135.322 66.6504 134.399 65.7744C133.475 64.8603 133.09 63.8701 133.09 62.6133V52.1777C133.09 50.9209 133.475 49.8545 134.399 48.9785C135.322 48.0645 136.322 47.6455 137.631 47.6455H142.171C142.594 47.6455 142.863 47.7598 143.171 48.0645C143.479 48.3311 143.518 48.6738 143.518 49.0928V49.1309C143.518 49.5498 143.441 49.9307 143.171 50.2353C142.863 50.54 142.594 50.6924 142.171 50.6924H137.631C137.207 50.6924 136.9 50.8447 136.592 51.1113C136.284 51.416 136.207 51.7588 136.207 52.1777V55.9863Z" fill="#5E4B56"/>
</g>
<defs>
<filter id="filter0_d_55_28" x="-4" y="0" width="205" height="203" filterUnits="userSpaceOnUse" color-interpolation-filters="sRGB">
<feFlood flood-opacity="0" result="BackgroundImageFix"/>
<feColorMatrix in="SourceAlpha" type="matrix" values="0 0 0 0 0 0 0 0 0 0 0 0 0 0 0 0 0 0 127 0" result="hardAlpha"/>
<feOffset dy="4"/>
<feGaussianBlur stdDeviation="2"/>
<feComposite in2="hardAlpha" operator="out"/>
<feColorMatrix type="matrix" values="0 0 0 0 0 0 0 0 0 0 0 0 0 0 0 0 0 0 0.25 0"/>
<feBlend mode="normal" in2="BackgroundImageFix" result="effect1_dropShadow_55_28"/>
<feBlend mode="normal" in="SourceGraphic" in2="effect1_dropShadow_55_28" result="shape"/>
</filter>
<clipPath id="clip0_55_28">
<rect width="197" height="195" fill="white"/>
</clipPath>
</defs>
</svg>
