<svg width="181" height="146" viewBox="0 0 181 146" fill="none" xmlns="http://www.w3.org/2000/svg">
<path d="M73.2374 145.122C113.611 145.122 146.341 112.832 146.341 73C146.341 33.1682 113.611 0.878113 73.2374 0.878113C32.8637 0.878113 0.134277 33.1682 0.134277 73C0.134277 112.832 32.8637 145.122 73.2374 145.122Z" fill="#EDE8EC"/>
<path d="M21.5532 22.0094C28.072 15.5781 35.9876 10.0656 44.8345 6.39062C53.6813 2.71562 63.4595 0.878113 73.2376 0.878113C83.0157 0.878113 92.7939 2.71562 101.641 6.39062C110.488 10.0656 118.403 15.1187 124.922 22.0094" stroke="#414042" stroke-miterlimit="10"/>
<path d="M124.922 123.991C118.403 130.422 110.488 135.934 101.641 139.609C92.7939 143.284 83.0157 145.122 73.2376 145.122C63.4595 145.122 53.6813 143.284 44.8345 139.609C35.9876 135.934 28.072 130.881 21.5532 123.991" stroke="#414042" stroke-miterlimit="10"/>
<path d="M73.2375 125.369C102.553 125.369 126.319 101.922 126.319 73C126.319 44.0775 102.553 20.6313 73.2375 20.6313C43.9215 20.6313 20.1562 44.0775 20.1562 73C20.1562 101.922 43.9215 125.369 73.2375 125.369Z" fill="#5E4B56"/>
<path d="M73.2373 105.156C91.2383 105.156 105.831 90.7594 105.831 73C105.831 55.2406 91.2383 40.8438 73.2373 40.8438C55.2363 40.8438 40.6436 55.2406 40.6436 73C40.6436 90.7594 55.2363 105.156 73.2373 105.156Z" fill="#EDE8EC"/>
<path d="M73.2374 87.7C81.4664 87.7 88.1374 81.1186 88.1374 73C88.1374 64.8814 81.4664 58.3 73.2374 58.3C65.0084 58.3 58.3374 64.8814 58.3374 73C58.3374 81.1186 65.0084 87.7 73.2374 87.7Z" fill="white"/>
<path d="M69.9778 102.859V97.8063C63.9247 96.8875 58.3372 94.1313 53.2153 89.5375L59.7341 81.2688C63.4591 84.4844 66.7185 86.7813 69.9778 87.2406V76.675C64.856 75.2969 61.131 73.4594 58.8028 71.6219C56.4747 69.325 55.0778 66.5688 55.0778 62.4344C55.0778 58.3 56.4747 55.0844 59.2685 52.3281C62.0622 49.5719 65.3216 48.1938 69.9778 47.7344V44.0594H77.4278V47.7344C82.0841 48.1938 87.206 50.4906 91.8622 53.7063L85.8091 61.975C82.5497 59.6781 79.756 58.3 77.4278 57.8406V68.4063C82.5497 69.7844 86.2747 71.6219 89.0685 73.9188C91.3966 76.2156 92.7934 79.4313 92.7934 83.5656C92.7934 87.7 91.3966 90.9156 88.6028 93.6719C85.8091 96.4281 82.0841 97.8063 77.4278 98.2656V103.319H69.9778V102.859ZM69.9778 57.8406C68.1153 58.7594 66.7185 59.6781 66.7185 61.975C66.7185 63.8125 67.6497 65.1906 69.9778 66.1094V57.8406V57.8406ZM81.6185 83.5656C81.6185 82.6469 81.1528 81.7281 80.6872 81.2688C80.2216 80.8094 79.2903 79.8906 77.8935 79.4313V88.1594C80.2216 87.2406 81.6185 85.8625 81.6185 83.5656Z" fill="#414042"/>
<path d="M71.8403 73.4594H180.331" stroke="white" stroke-miterlimit="10"/>
<path d="M147.737 73.4594L157.515 64.2719" stroke="white" stroke-miterlimit="10"/>
<path d="M157.515 73.4594L167.293 64.2719" stroke="white" stroke-miterlimit="10"/>
<path d="M167.293 73.4594L176.606 64.2719" stroke="white" stroke-miterlimit="10"/>
<path d="M176.606 82.6469L167.293 73.4594" stroke="white" stroke-miterlimit="10"/>
<path d="M167.293 82.6469L157.515 73.4594" stroke="white" stroke-miterlimit="10"/>
<path d="M157.515 82.6469L147.737 73.4594" stroke="white" stroke-miterlimit="10"/>
</svg>
