<svg width="117" height="117" viewBox="0 0 117 117" fill="none" xmlns="http://www.w3.org/2000/svg">
<path fill-rule="evenodd" clip-rule="evenodd" d="M91.65 32.6066C96.4963 32.6066 100.425 28.7423 100.425 23.9754C100.425 19.2086 96.4963 15.3443 91.65 15.3443C86.8037 15.3443 82.875 19.2086 82.875 23.9754C82.875 28.7423 86.8037 32.6066 91.65 32.6066Z" fill="#B1B695"/>
<path fill-rule="evenodd" clip-rule="evenodd" d="M26.325 32.6066C31.1713 32.6066 35.1 28.7423 35.1 23.9754C35.1 19.2086 31.1713 15.3443 26.325 15.3443C21.4787 15.3443 17.55 19.2086 17.55 23.9754C17.55 28.7423 21.4787 32.6066 26.325 32.6066Z" fill="#B1B695"/>
<path fill-rule="evenodd" clip-rule="evenodd" d="M26.325 101.656C31.1713 101.656 35.1 97.7914 35.1 93.0246C35.1 88.2577 31.1713 84.3934 26.325 84.3934C21.4787 84.3934 17.55 88.2577 17.55 93.0246C17.55 97.7914 21.4787 101.656 26.325 101.656Z" fill="#B1B695"/>
<path fill-rule="evenodd" clip-rule="evenodd" d="M91.65 101.656C96.4963 101.656 100.425 97.7914 100.425 93.0246C100.425 88.2577 96.4963 84.3934 91.65 84.3934C86.8037 84.3934 82.875 88.2577 82.875 93.0246C82.875 97.7914 86.8037 101.656 91.65 101.656Z" fill="#B1B695"/>
<rect y="52.7459" width="117" height="11.5082" rx="5.7541" fill="#555555"/>
<rect x="64.35" y="69.0492" width="47.9508" height="11.7" rx="5.85" transform="rotate(90 64.35 69.0492)" fill="#555555"/>
<rect x="64.35" width="47.9508" height="11.7" rx="5.85" transform="rotate(90 64.35 0)" fill="#555555"/>
</svg>
