<svg width="380" height="358" viewBox="0 0 380 358" fill="none" xmlns="http://www.w3.org/2000/svg">
<path d="M315.299 191.84L278.593 236.782H292.223V333.087H339.926V236.782H353.556L315.299 191.84Z" fill="#5E4B56"/>
<path d="M315.299 191.84L278.593 236.782H292.223L322.253 200.01L315.299 191.84ZM292.223 236.782H305.852V333.087H292.223V236.782Z" fill="#EDE8EC"/>
<path d="M63.1509 127.638L26.4455 172.58H40.0748V243.203H87.7787V172.58H101.408L63.1509 127.638Z" fill="#5E4B56"/>
<path d="M63.1509 127.638L26.4455 172.58H40.0748L70.1049 135.807L63.1509 127.638ZM40.0748 172.58H53.7041V243.203H40.0748V172.58Z" fill="#EDE8EC"/>
<path d="M192.632 24.9132L155.927 69.8553H169.556V100.418C176.837 97.3116 184.897 95.5371 193.407 95.5371C201.919 95.5371 209.978 97.3116 217.259 100.418V69.8553H230.888L192.632 24.9132Z" fill="#5E4B56"/>
<path d="M192.632 24.9132L155.927 69.8553H169.556L199.586 33.084L192.632 24.9132ZM183.185 96.4738V69.8553H169.556V100.418C173.841 98.5896 178.424 97.2889 183.185 96.4738Z" fill="#EDE8EC"/>
<path d="M234.366 188.698C256.987 167.386 256.987 132.832 234.365 111.521C211.743 90.2095 175.066 90.2101 152.445 111.522C129.824 132.834 129.825 167.388 152.446 188.699C175.068 210.011 211.745 210.01 234.366 188.698Z" fill="#B1B695"/>
<path d="M149.112 150.108C149.112 122.145 171.45 99.129 200.223 95.9464C197.984 95.6982 195.718 95.5359 193.409 95.5359C161.418 95.5359 135.483 119.969 135.483 150.108C135.483 180.247 161.418 204.681 193.409 204.681C195.718 204.681 197.984 204.517 200.223 204.27C171.45 201.089 149.112 178.073 149.112 150.108Z" fill="#EDE8EC"/>
<path d="M237.704 333.087C237.704 307.406 217.872 291.355 193.407 291.355C168.943 291.355 149.111 307.405 149.111 333.087H237.704Z" fill="#5E4B56"/>
<path d="M193.407 204.681C189.93 204.681 186.536 204.38 183.185 203.947V292.37C186.547 291.702 189.972 291.361 193.407 291.355C196.931 291.355 200.342 291.725 203.629 292.37V203.947C200.279 204.38 196.886 204.681 193.407 204.681Z" fill="#B1B695"/>
<path d="M183.185 246.821C180.083 242.372 176.537 238.04 172.771 234.491C159.461 221.958 150.785 221.911 145.461 226.924C140.136 231.94 140.187 240.113 153.493 252.653C161.858 260.533 174.297 267.468 183.185 270.785V246.821ZM245.427 226.923C240.103 221.91 231.428 221.958 218.117 234.49C212.567 239.722 207.47 246.641 203.629 253.155V272.106C212.374 269.726 227.64 261.835 237.394 252.651C250.701 240.112 250.752 231.939 245.427 226.923Z" fill="#5E4B56"/>
<path d="M211.153 154.905C209.752 152.586 208.026 150.773 205.959 149.445C203.893 148.134 200.838 146.661 196.798 145.05C191.278 142.961 188.533 140.473 188.533 137.614C188.533 136.165 189.061 134.918 190.124 133.859C191.188 132.836 192.462 132.298 193.928 132.298C195.844 132.298 198.986 133.514 203.332 135.934L209.351 126.691C206.685 123.055 203.631 120.749 196.816 121.098V116.948C196.816 114.79 195.026 113.042 190.001 113.042C184.976 113.042 183.187 114.792 183.187 116.948V121.732C183.187 121.732 180.714 122.535 177.587 125.601C174.157 128.949 173.504 134.595 173.504 138.466C173.504 146.229 180.372 149.576 182.004 150.742C183.627 151.909 186.29 153.269 189.524 154.586C196.165 157.262 199.237 159.382 199.237 162.416C199.237 163.877 198.525 165.289 197.057 166.624C195.582 167.965 194.058 168.53 192.461 168.642C187.966 168.937 184.253 165.959 179.079 162.366L172.087 171.545C176.828 176.831 183.188 179.22 183.188 179.332V183.232C183.188 185.394 185.624 187.137 190.003 187.137C194.122 187.137 196.817 185.394 196.817 183.232V179.332C196.817 179.282 202.568 178.604 206.467 175.438C210.307 172.309 213.181 167.469 213.181 162.49C213.18 159.765 212.548 157.25 211.153 154.905Z" fill="#FE6F80"/>
<path d="M200.222 291.831C197.995 291.542 195.729 291.355 193.407 291.355C168.943 291.355 149.111 307.405 149.111 333.087H162.74C162.741 309.844 179.003 294.534 200.222 291.831Z" fill="#EDE8EC"/>
<path d="M190 204.543C187.721 204.431 185.447 204.232 183.185 203.948V292.371C185.394 291.938 187.681 291.689 190 291.531V204.543Z" fill="#FFD39F"/>
<path d="M339.926 339.507H292.223C290.415 339.507 288.682 338.831 287.404 337.627C286.126 336.423 285.408 334.789 285.408 333.087V243.204H278.593C277.321 243.203 276.074 242.867 274.993 242.233C273.913 241.599 273.043 240.693 272.481 239.618C271.919 238.542 271.687 237.34 271.813 236.147C271.939 234.954 272.417 233.818 273.192 232.867L309.898 187.925C310.527 187.154 311.334 186.528 312.257 186.094C313.181 185.661 314.197 185.43 315.229 185.42C317.125 185.308 319.305 186.285 320.616 187.825L358.873 232.767C359.677 233.711 360.181 234.85 360.327 236.052C360.474 237.254 360.257 238.471 359.701 239.562C359.145 240.653 358.273 241.573 357.186 242.218C356.099 242.862 354.84 243.204 353.556 243.204H346.741V333.087C346.741 334.789 346.023 336.423 344.745 337.627C343.467 338.831 341.734 339.507 339.926 339.507ZM299.037 326.665H333.112V236.782C333.111 235.17 333.755 233.616 334.916 232.43C336.076 231.244 337.668 230.514 339.374 230.384L315.409 202.233L292.432 230.366C294.202 230.417 295.882 231.116 297.115 232.314C298.348 233.512 299.037 235.115 299.037 236.784V326.665ZM217.26 106.838C216.305 106.838 215.347 106.649 214.448 106.268C207.84 103.438 200.666 101.974 193.408 101.974C186.15 101.974 178.976 103.438 172.368 106.268C171.33 106.712 170.19 106.903 169.054 106.823C167.917 106.744 166.819 106.396 165.862 105.813C164.905 105.231 164.117 104.433 163.572 103.49C163.026 102.548 162.741 101.491 162.741 100.418V76.2755H155.927C154.654 76.2748 153.407 75.9386 152.327 75.3048C151.247 74.6711 150.376 73.7651 149.814 72.6895C149.252 71.6139 149.021 70.4115 149.147 69.2184C149.272 68.0254 149.75 66.8894 150.526 65.9388L187.232 20.9967C187.861 20.2261 188.668 19.6003 189.591 19.1664C190.515 18.7325 191.531 18.5018 192.562 18.4919C194.728 18.5265 196.639 19.3606 197.95 20.8965L236.207 65.8386C237.009 66.7829 237.513 67.9215 237.658 69.1234C237.804 70.3253 237.587 71.5415 237.031 72.6321C236.476 73.7227 235.604 74.6433 234.518 75.2879C233.431 75.9324 232.173 76.2748 230.889 76.2755H224.075V100.418C224.075 101.261 223.899 102.096 223.557 102.875C223.215 103.655 222.713 104.363 222.08 104.959C221.447 105.555 220.696 106.028 219.869 106.351C219.041 106.673 218.155 106.839 217.26 106.838ZM193.407 89.1169C199.204 89.1169 204.904 89.8437 210.444 91.2828V69.8553C210.444 68.2426 211.088 66.6888 212.248 65.5031C213.408 64.3174 215 63.5868 216.706 63.4567L192.741 35.3048L169.765 63.4376C171.535 63.4888 173.215 64.1874 174.448 65.3854C175.681 66.5834 176.371 68.1866 176.371 69.8553V91.2828C181.92 89.8415 187.651 89.1129 193.407 89.1169ZM237.704 339.507H149.112C147.305 339.507 145.571 338.831 144.293 337.627C143.015 336.423 142.297 334.789 142.297 333.087C142.297 305.187 163.793 284.935 193.409 284.935C223.023 284.935 244.52 305.185 244.52 333.087C244.519 334.789 243.801 336.422 242.523 337.626C241.245 338.83 239.511 339.507 237.704 339.507ZM156.438 326.665H230.376C227.531 309.367 213.127 297.775 193.407 297.775C173.689 297.775 159.283 309.368 156.438 326.665Z" fill="#161616"/>
<path d="M203.629 298.79C203.167 298.79 202.701 298.746 202.239 298.656C196.289 297.49 190.526 297.49 184.576 298.656C183.585 298.849 182.56 298.833 181.576 298.607C180.592 298.381 179.674 297.952 178.888 297.35C178.102 296.748 177.469 295.989 177.033 295.127C176.598 294.266 176.372 293.324 176.371 292.37V203.948C176.371 202.092 177.223 200.331 178.706 199.111C179.437 198.505 180.298 198.054 181.231 197.791C182.164 197.528 183.146 197.458 184.11 197.587C191.238 198.509 195.577 198.509 202.705 197.587C203.669 197.459 204.651 197.529 205.584 197.792C206.516 198.055 207.378 198.505 208.108 199.111C208.842 199.713 209.43 200.457 209.833 201.291C210.236 202.125 210.444 203.031 210.444 203.948V292.37C210.443 294.073 209.724 295.705 208.447 296.909C207.169 298.112 205.436 298.789 203.629 298.79ZM193.407 284.935C194.535 284.935 195.673 284.969 196.815 285.035V211.02C194.545 211.126 192.27 211.126 190 211.02V285.035C191.141 284.969 192.28 284.935 193.407 284.935Z" fill="#161616"/>
<path d="M183.185 277.204C182.337 277.204 181.485 277.057 180.676 276.753C171.413 273.298 157.925 265.907 148.675 257.191C129.109 238.755 135.245 227.468 140.642 222.384C146.035 217.295 158.008 211.515 177.588 229.948C181.435 233.576 185.235 238.064 188.882 243.297C189.61 244.343 190 245.567 190 246.821V270.784C189.999 272.486 189.281 274.119 188.003 275.323C186.725 276.527 184.992 277.203 183.185 277.204ZM153.377 230.299C152.203 230.299 151.144 230.647 150.279 231.465C146.086 235.411 153.512 243.588 158.312 248.111C163.386 252.889 170.145 257.28 176.371 260.56V248.775C173.609 244.982 170.72 241.637 167.952 239.029C164.142 235.443 157.893 230.299 153.377 230.299ZM203.629 278.526C202.734 278.527 201.848 278.362 201.02 278.039C200.193 277.717 199.442 277.244 198.809 276.648C198.176 276.051 197.674 275.343 197.332 274.564C196.99 273.785 196.814 272.95 196.815 272.106V253.156C196.815 252.065 197.111 250.993 197.673 250.04C202.255 242.266 207.803 235.131 213.297 229.952C232.865 211.531 244.838 217.296 250.245 222.381V222.385C255.642 227.47 261.778 238.755 242.212 257.192C231.448 267.331 215.273 275.622 205.519 278.277C204.905 278.443 204.269 278.527 203.629 278.526ZM210.445 254.848V262.607C217.865 259.149 226.521 253.814 232.576 248.112C237.375 243.588 244.799 235.412 240.608 231.463C236.426 227.513 227.738 234.509 222.936 239.033C218.641 243.081 214.245 248.654 210.445 254.848ZM211.153 154.905C209.752 152.586 208.026 150.773 205.959 149.445C203.893 148.134 200.838 146.661 196.798 145.05C191.278 142.961 188.533 140.473 188.533 137.614C188.533 136.165 189.061 134.918 190.124 133.859C191.188 132.836 192.462 132.298 193.928 132.298C195.844 132.298 198.986 133.514 203.332 135.934L209.351 126.691C206.685 123.055 203.631 120.749 196.816 121.098V116.948C196.816 114.79 195.026 113.042 190.001 113.042C184.976 113.042 183.187 114.792 183.187 116.948V121.732C183.187 121.732 180.714 122.535 177.587 125.601C174.157 128.949 173.504 134.595 173.504 138.466C173.504 146.229 180.372 149.576 182.004 150.742C183.627 151.909 186.29 153.269 189.524 154.586C196.165 157.262 199.237 159.382 199.237 162.416C199.237 163.877 198.525 165.289 197.057 166.624C195.582 167.965 194.058 168.53 192.461 168.642C187.966 168.937 184.253 165.959 179.079 162.366L172.087 171.545C176.828 176.831 183.188 179.22 183.188 179.332V183.232C183.188 185.394 185.624 187.137 190.003 187.137C194.122 187.137 196.817 185.394 196.817 183.232V179.332C196.817 179.282 202.568 178.604 206.467 175.438C210.307 172.309 213.181 167.469 213.181 162.49C213.18 159.765 212.548 157.25 211.153 154.905ZM87.7787 249.623H40.0748C38.2674 249.623 36.5341 248.946 35.2561 247.742C33.9781 246.538 33.2601 244.905 33.2601 243.203V223.942C33.2601 222.239 33.9781 220.606 35.2561 219.402C36.5341 218.198 38.2674 217.522 40.0748 217.522C41.8822 217.522 43.6155 218.198 44.8935 219.402C46.1715 220.606 46.8895 222.239 46.8895 223.942V236.782H80.9641V172.58C80.9636 170.967 81.6076 169.413 82.768 168.228C83.9285 167.042 85.5202 166.311 87.2265 166.181L63.2611 138.03L40.2838 166.163C42.054 166.214 43.7336 166.913 44.9666 168.111C46.1997 169.308 46.8893 170.911 46.8895 172.58V198.26C46.8895 199.963 46.1715 201.596 44.8935 202.8C43.6155 204.004 41.8822 204.681 40.0748 204.681C38.2674 204.681 36.5341 204.004 35.2561 202.8C33.9781 201.596 33.2601 199.963 33.2601 198.26V179H26.4455C25.1729 178.999 23.9259 178.663 22.8457 178.029C21.7654 177.396 20.895 176.49 20.333 175.414C19.771 174.338 19.5397 173.136 19.6654 171.943C19.7912 170.75 20.2688 169.614 21.0444 168.663L57.7511 123.721C58.3802 122.951 59.1869 122.325 60.1102 121.891C61.0336 121.457 62.0495 121.226 63.0813 121.216C64.1144 121.204 65.1369 121.414 66.0705 121.831C67.0042 122.247 67.8244 122.86 68.4684 123.621L106.726 168.563C107.528 169.507 108.031 170.646 108.177 171.848C108.323 173.05 108.106 174.266 107.551 175.357C106.996 176.448 106.125 177.369 105.038 178.014C103.951 178.658 102.693 179 101.408 179H94.5934V243.203C94.5934 244.905 93.8754 246.538 92.5974 247.742C91.3194 248.946 89.5861 249.623 87.7787 249.623Z" fill="#161616"/>
<path d="M193.407 211.102C157.709 211.102 128.667 183.741 128.667 150.109C128.667 116.479 157.709 89.1169 193.407 89.1169C222.021 89.1169 246.891 106.418 255.293 132.171C255.823 133.799 255.646 135.559 254.8 137.063C253.954 138.568 252.508 139.695 250.781 140.196C247.181 141.215 243.367 139.335 242.263 135.946C235.63 115.616 215.998 101.957 193.407 101.957C165.223 101.957 142.296 123.557 142.296 150.109C142.296 176.662 165.223 198.262 193.407 198.262C218.181 198.262 239.32 181.587 243.67 158.612C244.329 155.123 247.82 152.775 251.576 153.421C252.458 153.569 253.299 153.879 254.053 154.333C254.807 154.788 255.458 155.378 255.97 156.07C256.481 156.761 256.843 157.541 257.035 158.365C257.227 159.189 257.244 160.04 257.086 160.87C251.576 189.975 224.797 211.102 193.407 211.102Z" fill="#161616"/>
</svg>
