<svg width="233" height="222" viewBox="0 0 233 222" fill="none" xmlns="http://www.w3.org/2000/svg">
<path d="M66.3576 39.3369V182.663H45.4645V15.449H166.642V39.3369H66.3576Z" fill="#5E4B56"/>
<path d="M66.3576 39.3369H187.535V206.55H66.3576V39.3369Z" fill="#EDE8EC"/>
<path d="M83.0715 59.2437H129.035V67.2061H83.0715V59.2437ZM83.0715 75.1685H158.285V83.1308H83.0715V75.1685ZM83.0715 91.094H120.678V99.0564H83.0715V91.094ZM133.214 91.094H170.821V99.0564H133.214V91.094ZM83.0715 107.019H120.678V114.981H83.0715V107.019ZM133.214 107.019H170.821V114.981H133.214V107.019Z" fill="#C1C1C1"/>
<path d="M139.482 190.625C156.791 190.625 170.822 177.257 170.822 160.766C170.822 144.275 156.791 130.906 139.482 130.906C122.174 130.906 108.143 144.275 108.143 160.766C108.143 177.257 122.174 190.625 139.482 190.625Z" fill="#FFDA88"/>
<path d="M116.5 160.766C116.5 145.626 128.332 133.153 143.661 131.201C142.29 131.027 140.902 130.906 139.482 130.906C122.172 130.906 108.143 144.273 108.143 160.766C108.143 177.259 122.172 190.625 139.482 190.625C140.902 190.625 142.29 190.505 143.661 190.33C128.332 188.378 116.5 175.905 116.5 160.766Z" fill="#FFE2A9"/>
<path d="M149.084 163.39C148.325 162.121 147.39 161.13 146.273 160.402C145.154 159.685 143.502 158.879 141.317 157.997C138.33 156.854 136.845 155.493 136.845 153.928C136.845 153.135 137.132 152.453 137.705 151.873C138.282 151.314 138.971 151.018 139.764 151.018C140.8 151.018 142.5 151.684 144.851 153.008L148.229 147.952C146.788 145.961 143.839 144.962 141.572 144.892V142.619C141.572 141.439 140.111 140.483 137.393 140.483C134.676 140.483 133.215 141.439 133.215 142.619V145.238C133.215 145.238 132.248 145.676 130.555 147.355C128.698 149.186 128.531 152.275 128.531 154.394C128.531 158.642 132.338 160.473 133.219 161.111C134.098 161.748 135.584 162.493 137.333 163.214C140.928 164.68 142.612 165.838 142.612 167.498C142.612 168.297 142.237 169.068 141.443 169.8C140.646 170.534 139.828 170.844 138.965 170.904C136.531 171.065 134.527 169.436 131.728 167.471L127.578 172.494C130.143 175.384 133.215 176.693 133.215 176.753V178.888C133.215 180.072 135.023 181.025 137.394 181.025C139.622 181.025 141.572 180.072 141.572 178.888V176.753C141.572 176.726 144.559 176.357 146.669 174.623C148.748 172.912 150.242 170.262 150.242 167.539C150.241 166.049 149.837 164.673 149.084 163.39Z" fill="#7FD3B9"/>
<path d="M45.4645 15.449H53.8214V182.663H45.4645V15.449Z" fill="#D6D6D6"/>
<path d="M66.3576 39.3369H74.7146V206.55H66.3576V39.3369Z" fill="#EFEFEF"/>
<path d="M83.0715 59.2437H129.035V67.2061H83.0715V59.2437ZM83.0715 75.1685H158.285V83.1308H83.0715V75.1685ZM83.0715 91.094H120.678V99.0564H83.0715V91.094ZM133.214 91.094H170.821V99.0564H133.214V91.094ZM83.0715 107.019H120.678V114.981H83.0715V107.019ZM133.214 107.019H170.821V114.981H133.214V107.019ZM149.084 163.391C148.325 162.121 147.39 161.13 146.273 160.402C145.154 159.685 143.502 158.879 141.317 157.997C138.33 156.854 136.845 155.493 136.845 153.928C136.845 153.135 137.132 152.453 137.705 151.873C138.282 151.314 138.971 151.018 139.764 151.018C140.8 151.018 142.5 151.684 144.851 153.008L148.229 147.952C146.788 145.961 143.839 144.962 141.572 144.892V142.619C141.572 141.439 140.111 140.483 137.393 140.483C134.676 140.483 133.215 141.439 133.215 142.619V145.238C133.215 145.238 132.248 145.676 130.555 147.355C128.698 149.186 128.531 152.275 128.531 154.394C128.531 158.642 132.338 160.473 133.219 161.111C134.098 161.748 135.584 162.493 137.333 163.214C140.928 164.68 142.612 165.838 142.612 167.498C142.612 168.297 142.237 169.069 141.443 169.8C140.646 170.534 139.828 170.844 138.965 170.904C136.531 171.065 134.527 169.436 131.728 167.471L127.578 172.494C130.143 175.384 133.215 176.693 133.215 176.753V178.888C133.215 180.072 135.023 181.025 137.394 181.025C139.622 181.025 141.572 180.072 141.572 178.888V176.753C141.572 176.726 144.559 176.357 146.669 174.623C148.748 172.912 150.242 170.262 150.242 167.539C150.241 166.049 149.837 164.673 149.084 163.391Z" fill="#161616"/>
<path d="M139.482 194.607C119.897 194.607 103.965 179.426 103.965 160.766C103.965 142.105 119.897 126.925 139.482 126.925C159.068 126.925 175 142.105 175 160.766C175 179.426 159.067 194.607 139.482 194.607ZM139.482 134.888C124.507 134.888 112.322 146.497 112.322 160.766C112.322 175.036 124.506 186.645 139.482 186.645C154.458 186.645 166.643 175.036 166.643 160.766C166.643 146.497 154.458 134.888 139.482 134.888ZM66.3576 186.644H45.4645C44.3563 186.644 43.2935 186.225 42.5099 185.478C41.7263 184.732 41.286 183.719 41.286 182.663V150.813C41.286 149.757 41.7263 148.744 42.5099 147.998C43.2935 147.251 44.3563 146.832 45.4645 146.832C46.5727 146.832 47.6355 147.251 48.4191 147.998C49.2027 148.744 49.643 149.757 49.643 150.813V178.682H62.1784V39.3369C62.1784 38.281 62.6186 37.2684 63.4022 36.5218C64.1858 35.7752 65.2486 35.3557 66.3568 35.3557H162.463V19.4309H49.643V134.888C49.643 135.944 49.2027 136.956 48.4191 137.703C47.6355 138.45 46.5727 138.869 45.4645 138.869C44.3563 138.869 43.2935 138.45 42.5099 137.703C41.7263 136.956 41.286 135.944 41.286 134.888V15.449C41.286 14.3931 41.7263 13.3805 42.5099 12.6338C43.2935 11.8872 44.3563 11.4678 45.4645 11.4678H166.642C167.751 11.4678 168.813 11.8872 169.597 12.6338C170.381 13.3805 170.821 14.3931 170.821 15.449V39.3369C170.821 40.3928 170.381 41.4054 169.597 42.152C168.813 42.8987 167.751 43.3181 166.642 43.3181H70.5361V182.663C70.5361 183.719 70.0959 184.732 69.3122 185.478C68.5286 186.225 67.4658 186.644 66.3576 186.644Z" fill="#161616"/>
<path d="M187.535 210.532H175C173.892 210.532 172.829 210.113 172.045 209.366C171.262 208.62 170.822 207.607 170.822 206.551C170.822 205.495 171.262 204.482 172.045 203.736C172.829 202.989 173.892 202.57 175 202.57H183.357V43.3181H70.5361V202.569H158.285C159.394 202.569 160.456 202.989 161.24 203.735C162.024 204.482 162.464 205.494 162.464 206.55C162.464 207.606 162.024 208.619 161.24 209.365C160.456 210.112 159.394 210.531 158.285 210.531H66.3576C65.2494 210.531 64.1866 210.112 63.403 209.365C62.6194 208.619 62.1792 207.606 62.1792 206.55V39.3369C62.1792 38.281 62.6194 37.2684 63.403 36.5218C64.1866 35.7752 65.2494 35.3557 66.3576 35.3557H187.535C188.644 35.3557 189.706 35.7752 190.49 36.5218C191.274 37.2684 191.714 38.281 191.714 39.3369V206.55C191.714 207.073 191.606 207.591 191.396 208.074C191.186 208.557 190.878 208.996 190.49 209.366C190.102 209.736 189.642 210.029 189.135 210.229C188.628 210.429 188.084 210.532 187.535 210.532Z" fill="#161616"/>
</svg>
