<svg xmlns="http://www.w3.org/2000/svg" xmlns:xlink="http://www.w3.org/1999/xlink" version="1.1" width="1000" height="1000" viewBox="0 0 1000 1000" xml:space="preserve">
<desc>Created with Fabric.js 3.5.0</desc>
<defs>
</defs>
<rect x="0" y="0" width="100%" height="100%" fill="rgba(255,255,255,0)"/>
<g transform="matrix(3.5791 0 0 3.5791 500.0002 500.0002)" id="623068">
<g style="" vector-effect="non-scaling-stroke">
		<g transform="matrix(1 0 0 1 27.656 -49.7481)" id="80858">
<path style="stroke: none; stroke-width: 1; stroke-dasharray: none; stroke-linecap: butt; stroke-dashoffset: 0; stroke-linejoin: miter; stroke-miterlimit: 4; is-custom-font: none; font-file-url: none; fill: rgb(22,22,22); fill-rule: nonzero; opacity: 1;" transform=" translate(-154.656, -50.252)" d="M 154.656 100 C 127.977 100 106.271 77.6824 106.271 50.2519 C 106.271 22.8215 127.976 0.503906 154.656 0.503906 C 181.336 0.503906 203.041 22.8215 203.041 50.2519 C 203.041 77.6824 181.335 100 154.656 100 Z M 154.656 10.977 C 133.592 10.977 116.457 28.5943 116.457 50.2519 C 116.457 71.9096 133.592 89.5269 154.656 89.5269 C 175.72 89.5269 192.855 71.9096 192.855 50.2519 C 192.855 28.5943 175.72 10.977 154.656 10.977 Z" stroke-linecap="round"/>
</g>
		<g transform="matrix(1 0 0 1 25.0205 15.7235)" id="29275">
<path style="stroke: none; stroke-width: 1; stroke-dasharray: none; stroke-linecap: butt; stroke-dashoffset: 0; stroke-linejoin: miter; stroke-miterlimit: 4; is-custom-font: none; font-file-url: none; fill: rgb(22,22,22); fill-rule: nonzero; opacity: 1;" transform=" translate(-152.0204, -115.7234)" d="M 152.109 136.657 C 150.875 136.658 149.683 136.199 148.754 135.363 L 119.409 108.965 C 118.735 108.359 118.228 107.581 117.939 106.71 C 117.651 105.838 117.591 104.904 117.765 104.001 C 117.94 103.098 118.343 102.258 118.934 101.567 C 119.525 100.875 120.283 100.356 121.132 100.061 C 141.141 93.1166 162.25 93.0504 182.822 99.7644 C 183.679 100.044 184.449 100.553 185.053 101.238 C 185.657 101.923 186.074 102.76 186.261 103.665 C 186.449 104.569 186.4 105.509 186.119 106.387 C 185.839 107.266 185.337 108.053 184.665 108.668 L 155.494 135.332 C 154.563 136.187 153.358 136.658 152.109 136.657 Z M 133.182 107.435 L 152.082 124.439 L 170.82 107.308 C 158.193 104.526 145.549 104.542 133.182 107.435 Z" stroke-linecap="round"/>
</g>
		<g transform="matrix(1 0 0 1 46.306 23.3346)" id="796322">
<path style="stroke: none; stroke-width: 1; stroke-dasharray: none; stroke-linecap: butt; stroke-dashoffset: 0; stroke-linejoin: miter; stroke-miterlimit: 4; is-custom-font: none; font-file-url: none; fill: rgb(22,22,22); fill-rule: nonzero; opacity: 1;" transform=" translate(-173.3059, -123.3347)" d="M 172.48 147.13 C 171.69 147.129 170.911 146.941 170.204 146.578 L 149.831 136.105 C 149.086 135.722 148.444 135.157 147.961 134.46 C 147.478 133.763 147.169 132.954 147.061 132.105 C 146.951 131.256 147.046 130.393 147.337 129.59 C 147.628 128.788 148.106 128.071 148.73 127.502 L 177.955 100.859 C 178.616 100.257 179.417 99.8414 180.28 99.6532 C 181.144 99.465 182.04 99.5107 182.882 99.7858 C 187.478 101.295 192.131 103.212 196.712 105.483 C 197.38 105.813 197.971 106.291 198.442 106.881 C 198.912 107.471 199.252 108.16 199.436 108.899 C 199.62 109.638 199.645 110.41 199.509 111.16 C 199.372 111.91 199.078 112.62 198.647 113.241 L 176.627 144.937 C 176.156 145.615 175.533 146.168 174.812 146.55 C 174.09 146.931 173.291 147.13 172.48 147.13 Z M 161.124 130.198 L 170.869 135.209 L 186.735 112.371 C 185.338 111.783 183.929 111.228 182.507 110.709 L 161.124 130.198 Z" stroke-linecap="round"/>
</g>
		<g transform="matrix(1 0 0 1 4.0498 23.4595)" id="851197">
<path style="stroke: none; stroke-width: 1; stroke-dasharray: none; stroke-linecap: butt; stroke-dashoffset: 0; stroke-linejoin: miter; stroke-miterlimit: 4; is-custom-font: none; font-file-url: none; fill: rgb(22,22,22); fill-rule: nonzero; opacity: 1;" transform=" translate(-131.0498, -123.4594)" d="M 131.739 147.13 C 130.928 147.13 130.129 146.931 129.407 146.55 C 128.686 146.168 128.064 145.615 127.594 144.936 L 105.849 113.638 C 105.424 113.029 105.133 112.332 104.993 111.596 C 104.854 110.86 104.87 110.102 105.04 109.373 C 105.21 108.644 105.53 107.96 105.979 107.369 C 106.428 106.778 106.996 106.293 107.644 105.947 C 111.989 103.635 116.499 101.667 121.135 100.061 C 121.98 99.7704 122.885 99.7112 123.759 99.8898 C 124.633 100.068 125.446 100.478 126.119 101.079 L 155.464 127.477 C 156.092 128.044 156.575 128.76 156.871 129.564 C 157.166 130.367 157.265 131.233 157.159 132.085 C 157.053 132.938 156.744 133.75 156.261 134.451 C 155.778 135.151 155.135 135.72 154.388 136.105 L 134.016 146.578 C 133.309 146.94 132.529 147.129 131.739 147.13 Z M 117.671 112.642 L 133.35 135.209 L 143.044 130.223 L 121.657 110.984 C 120.316 111.505 118.987 112.057 117.671 112.642 Z" stroke-linecap="round"/>
</g>
		<g transform="matrix(1 0 0 1 25.0937 44.511)" id="751691">
<path style="stroke: none; stroke-width: 1; stroke-dasharray: none; stroke-linecap: butt; stroke-dashoffset: 0; stroke-linejoin: miter; stroke-miterlimit: 4; is-custom-font: none; font-file-url: none; fill: rgb(22,22,22); fill-rule: nonzero; opacity: 1;" transform=" translate(-152.0938, -144.511)" d="M 162.296 162.839 H 141.922 C 140.849 162.839 139.803 162.491 138.934 161.843 C 138.065 161.196 137.417 160.283 137.083 159.234 L 131.353 141.233 C 130.972 140.04 131.021 138.745 131.491 137.586 C 131.962 136.426 132.822 135.479 133.914 134.917 L 149.831 126.735 C 150.538 126.372 151.318 126.183 152.109 126.183 C 152.9 126.183 153.68 126.372 154.387 126.735 L 170.273 134.903 C 171.364 135.464 172.222 136.409 172.693 137.566 C 173.164 138.723 173.216 140.015 172.84 141.208 L 167.14 159.224 C 166.807 160.276 166.159 161.191 165.289 161.841 C 164.418 162.49 163.371 162.84 162.296 162.839 Z M 145.616 152.366 H 158.598 L 161.796 142.256 L 152.109 137.276 L 142.4 142.267 L 145.616 152.366 Z" stroke-linecap="round"/>
</g>
		<g transform="matrix(1 0 0 1 -27.4238 59.505)" id="687091">
<path style="stroke: none; stroke-width: 1; stroke-dasharray: none; stroke-linecap: butt; stroke-dashoffset: 0; stroke-linejoin: miter; stroke-miterlimit: 4; is-custom-font: none; font-file-url: none; fill: rgb(22,22,22); fill-rule: nonzero; opacity: 1;" transform=" translate(-99.5762, -159.505)" d="M 162.296 199.496 H 141.922 C 141.253 199.496 140.591 199.361 139.973 199.098 C 139.355 198.835 138.793 198.449 138.32 197.963 C 137.847 197.477 137.472 196.899 137.216 196.264 C 136.961 195.628 136.829 194.947 136.829 194.26 V 157.603 C 136.829 156.915 136.961 156.234 137.216 155.599 C 137.472 154.963 137.847 154.386 138.32 153.899 C 138.793 153.413 139.355 153.027 139.973 152.764 C 140.591 152.501 141.253 152.366 141.922 152.366 H 162.296 C 162.964 152.366 163.627 152.501 164.245 152.764 C 164.863 153.027 165.424 153.413 165.897 153.899 C 166.37 154.386 166.746 154.963 167.001 155.599 C 167.257 156.234 167.389 156.915 167.389 157.603 V 194.26 C 167.389 194.947 167.257 195.628 167.001 196.264 C 166.746 196.899 166.37 197.477 165.897 197.963 C 165.424 198.449 164.863 198.835 164.245 199.098 C 163.627 199.361 162.964 199.496 162.296 199.496 Z M 147.016 189.023 H 157.202 V 162.84 H 147.016 V 189.023 Z M 60.9615 153.661 C 59.9145 151.769 58.6242 150.29 57.0792 149.207 C 55.5352 148.138 53.2518 146.936 50.2329 145.622 C 46.1073 143.919 44.055 141.888 44.055 139.557 C 44.055 138.376 44.4497 137.358 45.244 136.494 C 46.0392 135.66 46.9915 135.22 48.0868 135.22 C 49.5191 135.22 51.8669 136.212 55.1149 138.186 L 59.6134 130.647 C 57.6207 127.682 55.3383 125.8 50.2452 126.085 V 122.7 C 50.2452 120.94 48.9076 119.514 45.1521 119.514 C 41.3967 119.514 40.0591 120.94 40.0591 122.7 V 126.602 C 40.0591 126.602 38.2112 127.257 35.8739 129.758 C 33.3103 132.489 32.8228 137.097 32.8228 140.251 C 32.8228 146.583 37.9556 149.313 39.1739 150.264 C 40.3876 151.215 42.3775 152.325 44.7943 153.399 C 49.7577 155.582 52.0533 157.311 52.0533 159.786 C 52.0533 160.977 51.5213 162.129 50.4251 163.218 C 49.3232 164.312 48.1843 164.772 46.9906 164.864 C 43.6309 165.104 40.8562 162.676 36.989 159.745 L 31.7634 167.232 C 35.3068 171.543 40.06 173.492 40.06 173.584 V 176.765 C 40.06 178.529 41.8805 179.951 45.1531 179.951 C 48.2316 179.951 50.2462 178.529 50.2462 176.765 V 173.584 C 50.2462 173.543 54.544 172.99 57.4579 170.408 C 60.3282 167.856 62.4771 163.908 62.4771 159.848 C 62.4771 157.623 62.0038 155.572 60.9615 153.661 Z" stroke-linecap="round"/>
</g>
		<g transform="matrix(1 0 0 1 27.6561 47.1302)" id="274266">
<path style="stroke: none; stroke-width: 1; stroke-dasharray: none; stroke-linecap: butt; stroke-dashoffset: 0; stroke-linejoin: miter; stroke-miterlimit: 4; is-custom-font: none; font-file-url: none; fill: rgb(22,22,22); fill-rule: nonzero; opacity: 1;" transform=" translate(-154.6561, -147.1302)" d="M 248.88 199.496 H 223.413 C 220.601 199.496 218.32 197.154 218.32 194.259 C 218.32 191.365 220.601 189.023 223.413 189.023 H 243.611 C 240.608 143.817 199.138 105.236 152.108 105.236 C 129.529 105.236 108.371 114.048 92.1466 130.136 C 94.7603 136.339 96.0838 142.921 96.0838 149.748 C 96.0838 165.514 89.0159 179.818 77.4789 189.023 H 203.04 C 205.853 189.023 208.133 191.365 208.133 194.259 C 208.133 197.154 205.853 199.496 203.04 199.496 H 60.4323 C 59.7634 199.496 59.101 199.361 58.483 199.098 C 57.8649 198.835 57.3034 198.449 56.8304 197.963 C 56.3574 197.477 55.9823 196.899 55.7264 196.264 C 55.4705 195.628 55.339 194.947 55.3392 194.259 C 55.3392 193.774 55.3686 193.293 55.4017 192.817 L 55.4367 192.168 C 55.4579 191.067 55.8158 190.002 56.4595 189.122 C 57.1032 188.243 58.0001 187.595 59.0227 187.269 C 75.0981 182.15 85.8986 167.069 85.8986 149.748 C 85.8986 143.33 84.4161 137.193 81.4966 131.502 C 80.997 130.529 80.8081 129.419 80.9568 128.329 C 81.1055 127.24 81.5842 126.226 82.3249 125.432 C 100.783 105.657 125.565 94.7644 152.109 94.7644 C 207.326 94.7644 253.973 140.329 253.973 194.26 C 253.973 194.948 253.841 195.629 253.585 196.264 C 253.329 196.9 252.954 197.477 252.481 197.963 C 252.008 198.449 251.447 198.835 250.829 199.098 C 250.211 199.361 249.548 199.496 248.88 199.496 Z" stroke-linecap="round"/>
</g>
		<g transform="matrix(1 0 0 1 -78.9431 39.2756)" id="166237">
<path style="stroke: none; stroke-width: 1; stroke-dasharray: none; stroke-linecap: butt; stroke-dashoffset: 0; stroke-linejoin: miter; stroke-miterlimit: 4; is-custom-font: none; font-file-url: none; fill: rgb(22,22,22); fill-rule: nonzero; opacity: 1;" transform=" translate(-48.057, -139.2756)" d="M 47.6996 199.496 C 24.2412 199.496 4.22585 182.262 0.107854 158.524 C -0.0099856 157.847 0.00306988 157.152 0.146274 156.481 C 0.289479 155.809 0.560025 155.173 0.942453 154.608 C 1.32488 154.044 1.81169 153.563 2.37508 153.192 C 2.93846 152.822 3.56736 152.569 4.22585 152.448 C 4.88432 152.326 5.55966 152.339 6.21321 152.486 C 6.86677 152.633 7.4857 152.912 8.03458 153.305 C 8.58345 153.698 9.0515 154.199 9.41191 154.778 C 9.77232 155.358 10.018 156.005 10.1349 156.682 C 13.3858 175.42 29.1847 189.022 47.6996 189.022 C 68.7639 189.022 85.8986 171.405 85.8986 149.747 C 85.8986 132.907 75.4587 117.964 59.9183 112.564 C 59.2628 112.336 58.6593 111.973 58.1446 111.497 C 57.6298 111.022 57.2145 110.443 56.9239 109.798 C 56.6349 109.151 56.4766 108.451 56.4587 107.74 C 56.4408 107.029 56.5637 106.322 56.8198 105.661 L 62.5547 90.9226 C 50.3711 92.4469 39.9019 91.859 32.8758 90.9947 L 38.5804 105.662 C 38.8363 106.323 38.9591 107.03 38.9412 107.741 C 38.9233 108.452 38.7651 109.152 38.4763 109.799 C 38.186 110.444 37.7708 111.023 37.256 111.498 C 36.7412 111.974 36.1376 112.337 35.4819 112.565 C 23.9203 116.585 14.8607 126.168 11.2501 138.2 C 10.4199 140.962 7.56191 142.532 4.88095 141.658 C 4.24191 141.455 3.64794 141.125 3.13297 140.687 C 2.618 140.248 2.19213 139.709 1.87969 139.102 C 1.56725 138.494 1.37436 137.828 1.31204 137.144 C 1.24972 136.459 1.3192 135.769 1.5165 135.112 C 5.55782 121.652 14.9885 110.606 27.2355 104.705 L 20.0513 86.2331 C 19.704 85.3389 19.6035 84.3633 19.761 83.4141 C 19.9186 82.4649 20.3279 81.5788 20.944 80.8535 C 21.5613 80.1291 22.3598 79.5926 23.253 79.3022 C 24.1461 79.0119 25.0995 78.9788 26.0096 79.2066 C 26.2008 79.2582 45.688 84.0753 69.6197 79.156 C 70.5192 78.972 71.4504 79.0407 72.3152 79.3548 C 73.1799 79.669 73.9464 80.217 74.5339 80.9411 C 75.1212 81.6659 75.5071 82.5403 75.6508 83.4721 C 75.7944 84.4038 75.6905 85.3581 75.3499 86.2341 L 68.1656 104.7 C 85.0646 112.795 96.0857 130.27 96.0857 149.749 C 96.0847 177.179 74.3786 199.496 47.6996 199.496 Z" stroke-linecap="round"/>
</g>
</g>
</g>
<g transform="matrix(3.4375 0 0 3.4375 606.5889 670.0279)" id="297758">
<path style="stroke: none; stroke-width: 0; stroke-dasharray: none; stroke-linecap: butt; stroke-dashoffset: 0; stroke-linejoin: miter; stroke-miterlimit: 4; is-custom-font: none; font-file-url: none; fill: rgb(94,75,86); fill-rule: nonzero; opacity: 1;" vector-effect="non-scaling-stroke" transform=" translate(-94.6566, -47.1298)" d="M 92.1094 0 C 66.1063 0 42.6849 11.1787 25.9999 29.0569 C 29.2816 35.4316 30.9954 42.5354 30.9916 49.748 C 30.9916 69.7432 18.1738 86.65 0.529808 92.2701 C 0.517501 92.9397 0.433243 93.5899 0.433243 94.2595 H 188.88 C 188.88 42.1998 142.743 0 92.1094 0 Z" stroke-linecap="round"/>
</g>
<g transform="matrix(3.5395 0 0 3.5395 209.4664 656.2577)" id="390679">
<path style="stroke: none; stroke-width: 0; stroke-dasharray: none; stroke-linecap: butt; stroke-dashoffset: 0; stroke-linejoin: miter; stroke-miterlimit: 4; is-custom-font: none; font-file-url: none; fill: rgb(255,218,136); fill-rule: nonzero; opacity: 1;" vector-effect="non-scaling-stroke" transform=" translate(-16.1203, -30.7325)" d="M 29.9615 34.6608 C 28.9145 32.7687 27.6242 31.2902 26.0792 30.2068 C 24.5352 29.1381 22.2518 27.9361 19.2329 26.6221 C 15.1073 24.9187 13.055 22.8884 13.055 20.5572 C 13.055 19.3756 13.4497 18.3585 14.244 17.4942 C 15.0392 16.66 15.9915 16.2201 17.0868 16.2201 C 18.5191 16.2201 20.8669 17.2119 24.1149 19.1858 L 28.6134 11.6473 C 26.6207 8.68159 24.3383 6.80014 19.2452 7.08532 V 3.70007 C 19.2452 1.94029 17.9076 0.514343 14.1521 0.514343 C 10.3967 0.514343 9.05908 1.94029 9.05908 3.70007 V 7.60215 C 9.05908 7.60215 7.21119 8.25721 4.87387 10.7577 C 2.3103 13.4889 1.82276 18.0966 1.82276 21.2512 C 1.82276 27.5828 6.95559 30.313 8.17395 31.2639 C 9.38757 32.2148 11.3775 33.3254 13.7943 34.399 C 18.7577 36.5822 21.0533 38.3108 21.0533 40.786 C 21.0533 41.9774 20.5213 43.1288 19.4251 44.218 C 18.3232 45.312 17.1843 45.7724 15.9906 45.8639 C 12.6309 46.1043 9.85617 43.6758 5.98904 40.7451 L 0.763439 48.232 C 4.30681 52.5429 9.06003 54.4915 9.06003 54.584 V 57.7648 C 9.06003 59.5295 10.8805 60.9506 14.1531 60.9506 C 17.2317 60.9506 19.2462 59.5285 19.2462 57.7648 V 54.584 C 19.2462 54.5431 23.544 53.9903 26.4579 51.408 C 29.3282 48.8559 31.4771 44.9081 31.4771 40.8483 C 31.4771 38.6233 31.0038 36.5724 29.9615 34.6608 Z" stroke-linecap="round"/>
</g>
<g transform="matrix(3.1715 0 0 3.1715 597.8238 316.2965)" id="770933">
<path style="stroke: none; stroke-width: 0; stroke-dasharray: none; stroke-linecap: butt; stroke-dashoffset: 0; stroke-linejoin: miter; stroke-miterlimit: 4; is-custom-font: none; font-file-url: none; fill: rgb(237,232,236); fill-rule: nonzero; opacity: 1;" vector-effect="non-scaling-stroke" transform=" translate(-43.6603, -45.2514)" d="M 86.3931 52.3826 C 90.2236 28.1171 74.1968 5.25329 50.5961 1.31488 C 26.9954 -2.62353 4.75801 13.8548 0.927502 38.1203 C -2.90301 62.3858 13.1239 85.2496 36.7246 89.188 C 60.3253 93.1264 82.5626 76.6481 86.3931 52.3826 Z" stroke-linecap="round"/>
</g>
<g transform="matrix(2.8183 0 0 3.0122 527.9717 316.8733)" id="785375">
<path style="stroke: none; stroke-width: 0; stroke-dasharray: none; stroke-linecap: butt; stroke-dashoffset: 0; stroke-linejoin: miter; stroke-miterlimit: 4; is-custom-font: none; font-file-url: none; fill: rgb(239,239,239); fill-rule: nonzero; opacity: 1;" vector-effect="non-scaling-stroke" transform=" translate(-25.8297, -45.253)" d="M 15.6431 45.252 C 15.6431 23.3549 31.0369 5.18959 51.2955 1.4773 C 48.8134 1.01691 46.2668 0.741455 43.6559 0.741455 C 19.7469 0.741455 0.363914 20.6705 0.363914 45.253 C 0.363914 69.8355 19.7469 89.7645 43.6559 89.7645 C 46.2668 89.7645 48.8134 89.488 51.2955 89.0277 C 31.0378 85.3144 15.6431 67.1491 15.6431 45.252 Z" stroke-linecap="round"/>
</g>
<g transform="matrix(3.6542 0 0 3.6542 598.8348 599.4805)" id="72136">
<path style="stroke: none; stroke-width: 0; stroke-dasharray: none; stroke-linecap: butt; stroke-dashoffset: 0; stroke-linejoin: miter; stroke-miterlimit: 4; is-custom-font: none; font-file-url: none; fill: rgb(237,232,236); fill-rule: nonzero; opacity: 1;" vector-effect="non-scaling-stroke" transform=" translate(-43.2452, -19.3347)" d="M 72.3358 0.776123 L 43.1094 27.4192 L 63.4817 37.8922 L 85.5002 6.19662 C 81.2487 4.09032 76.8571 2.25948 72.3358 0.776123 Z M 22.7362 37.8932 L 43.1084 27.4202 L 13.7627 1.02238 C 9.37266 2.54135 5.10261 4.40492 0.990295 6.59665 L 22.7362 37.8932 Z" stroke-linecap="round"/>
</g>
<g transform="matrix(3.2933 0 0 3.2933 600.7151 732.8451)" id="88106">
<path style="stroke: none; stroke-width: 0; stroke-dasharray: none; stroke-linecap: butt; stroke-dashoffset: 0; stroke-linejoin: miter; stroke-miterlimit: 4; is-custom-font: none; font-file-url: none; fill: rgb(254,111,128); fill-rule: nonzero; opacity: 1;" vector-effect="non-scaling-stroke" transform=" translate(-16.0942, -31.8398)" d="M 26.2955 26.6028 L 31.9954 8.58643 L 16.1094 0.420166 L 0.193085 8.602 L 5.92327 26.6028 H 26.2955 Z M 5.92327 26.6028 H 26.2955 L 26.2965 63.2595 H 5.92327 V 26.6028 Z" stroke-linecap="round"/>
</g>
<g transform="matrix(3.2491 0 0 3.2491 214.3606 641.7449)" id="460808">
<path style="stroke: none; stroke-width: 0; stroke-dasharray: none; stroke-linecap: butt; stroke-dashoffset: 0; stroke-linejoin: miter; stroke-miterlimit: 4; is-custom-font: none; font-file-url: none; fill: rgb(94,75,86); fill-rule: nonzero; opacity: 1;" vector-effect="non-scaling-stroke" transform=" translate(-43.6996, -55.2747)" d="M 57.5484 23.6037 L 66.6184 0.289429 C 41.1521 5.52596 20.7799 0.289429 20.7799 0.289429 L 29.8499 23.6037 C 12.7427 29.5517 0.407608 46.1509 0.407608 65.748 C 0.407608 90.3354 19.7906 110.26 43.6996 110.26 C 67.6086 110.26 86.9916 90.3354 86.9916 65.748 C 86.9916 46.1519 74.6566 29.5517 57.5484 23.6037 Z" stroke-linecap="round"/>
</g>
<g transform="matrix(3.1171 0 0 3.1171 581.092 734.6086)" id="576742">
<path style="stroke: none; stroke-width: 0; stroke-dasharray: none; stroke-linecap: butt; stroke-dashoffset: 0; stroke-linejoin: miter; stroke-miterlimit: 4; is-custom-font: none; font-file-url: none; fill: rgb(255,161,170); fill-rule: nonzero; opacity: 1;" vector-effect="non-scaling-stroke" transform=" translate(-10.6978, -31.8398)" d="M 5.92327 26.6028 H 16.1094 V 63.2595 H 5.92327 V 26.6028 Z M 21.2025 3.03842 L 16.1094 0.420166 L 0.193085 8.602 L 5.92327 26.6028 H 16.1094 L 10.3792 8.602 L 21.2025 3.03842 Z" stroke-linecap="round"/>
</g>
<g transform="matrix(2.3742 0 0 2.2175 209.4652 665.3228)" id="870732">
<path style="stroke: none; stroke-width: 0; stroke-dasharray: none; stroke-linecap: butt; stroke-dashoffset: 0; stroke-linejoin: miter; stroke-miterlimit: 4; is-custom-font: none; font-file-url: none; fill: rgb(255,218,136); fill-rule: nonzero; opacity: 1;" vector-effect="non-scaling-stroke" transform=" translate(-16.1203, -30.7325)" d="M 29.9615 34.6608 C 28.9145 32.7687 27.6242 31.2902 26.0792 30.2068 C 24.5352 29.1381 22.2518 27.9361 19.2329 26.6221 C 15.1073 24.9187 13.055 22.8884 13.055 20.5572 C 13.055 19.3756 13.4497 18.3585 14.244 17.4942 C 15.0392 16.66 15.9915 16.2201 17.0868 16.2201 C 18.5191 16.2201 20.8669 17.2119 24.1149 19.1858 L 28.6134 11.6473 C 26.6207 8.68159 24.3383 6.80014 19.2452 7.08532 V 3.70007 C 19.2452 1.94029 17.9076 0.514343 14.1521 0.514343 C 10.3967 0.514343 9.05908 1.94029 9.05908 3.70007 V 7.60215 C 9.05908 7.60215 7.21119 8.25721 4.87387 10.7577 C 2.3103 13.4889 1.82276 18.0966 1.82276 21.2512 C 1.82276 27.5828 6.95559 30.313 8.17395 31.2639 C 9.38757 32.2148 11.3775 33.3254 13.7943 34.399 C 18.7577 36.5822 21.0533 38.3108 21.0533 40.786 C 21.0533 41.9774 20.5213 43.1288 19.4251 44.218 C 18.3232 45.312 17.1843 45.7724 15.9906 45.8639 C 12.6309 46.1043 9.85617 43.6758 5.98904 40.7451 L 0.763439 48.232 C 4.30681 52.5429 9.06003 54.4915 9.06003 54.584 V 57.7648 C 9.06003 59.5295 10.8805 60.9506 14.1531 60.9506 C 17.2317 60.9506 19.2462 59.5285 19.2462 57.7648 V 54.584 C 19.2462 54.5431 23.544 53.9903 26.4579 51.408 C 29.3282 48.8559 31.4771 44.9081 31.4771 40.8483 C 31.4771 38.6233 31.0038 36.5724 29.9615 34.6608 Z" stroke-linecap="round"/>
</g>
</svg>