<svg width="84" height="82" viewBox="0 0 84 82" fill="none" xmlns="http://www.w3.org/2000/svg">
<path d="M71.6541 69.9297C79.5749 62.2483 84.0153 51.8438 84 41.0017C83.9915 40.3325 83.7107 39.6934 83.2178 39.2231C82.7248 38.7525 82.0602 38.489 81.3675 38.489C80.6744 38.489 80.0098 38.7525 79.5169 39.2231C79.024 39.6934 78.7431 40.3325 78.7347 41.0017C78.7458 50.5032 74.8525 59.6209 67.9103 66.3514C64.5402 69.694 60.5112 72.3508 56.0608 74.165C51.6108 75.9788 46.8296 76.9133 41.9996 76.9133C37.1696 76.9133 32.3884 75.9788 27.9383 74.165C23.4881 72.3508 19.4591 69.694 16.089 66.3514C9.15603 59.6143 5.26462 50.5002 5.26462 41.0002C5.26462 31.4999 9.15603 22.3859 16.089 15.6486C19.4395 12.3317 23.4383 9.69033 27.8534 7.87765C32.2685 6.06501 37.0122 5.11709 41.8094 5.08888C42.8337 5.11987 43.8049 5.53627 44.516 6.24922C45.2272 6.96213 45.6217 7.91525 45.6156 8.90527C45.6098 9.89528 45.2037 10.8439 44.4841 11.5488C43.7646 12.2537 42.7883 12.6591 41.7637 12.6786C41.6688 12.6788 41.5739 12.6839 41.4798 12.6938C34.1813 12.9209 27.2563 15.8649 22.1526 20.9104C16.7627 26.1521 13.7377 33.2406 13.7377 40.629C13.7377 48.0176 16.7627 55.1059 22.1526 60.3477C24.7857 62.9535 27.9317 65.0242 31.4055 66.4379C34.8792 67.8516 38.6107 68.5798 42.38 68.5798C46.1492 68.5798 49.8808 67.8516 53.3546 66.4379C56.828 65.0242 59.9741 62.9535 62.6073 60.3477C68.0055 55.1114 71.0318 48.0194 71.021 40.629C71.0322 39.4651 70.8043 38.3101 70.351 37.2315C69.8973 36.1531 69.2272 35.172 68.379 34.3451C67.5307 33.5181 66.5214 32.8617 65.4092 32.4137C64.297 31.9658 63.1041 31.7351 61.8989 31.7351C60.6937 31.7351 59.5008 31.9658 58.3886 32.4137C57.2764 32.8617 56.2671 33.5181 55.4188 34.3451C54.5706 35.172 53.9005 36.1531 53.4468 37.2315C52.9935 38.3101 52.7657 39.4651 52.7768 40.629C52.7768 40.7033 52.7818 40.773 52.7879 40.8443C52.7818 40.9156 52.7768 40.9868 52.7768 41.0596C52.7941 43.089 52.1867 45.0777 51.0318 46.7735C49.8773 48.4689 48.2273 49.7947 46.2914 50.583C44.3554 51.371 42.2205 51.5858 40.1582 51.2002C38.0956 50.8142 36.1981 49.8455 34.7065 48.4162C33.2149 46.9869 32.1964 45.1619 31.7802 43.1725C31.364 41.1832 31.5689 39.1192 32.3689 37.2426C33.1688 35.3658 34.5278 33.761 36.2734 32.6316C38.019 31.5023 40.0725 30.8993 42.1733 30.8993C42.5217 30.9033 42.8675 30.8405 43.1906 30.7146C43.5137 30.5886 43.8076 30.4019 44.0554 30.1653C44.3032 29.9287 44.5003 29.647 44.6344 29.3364C44.7688 29.0258 44.838 28.6925 44.838 28.3559C44.838 28.0193 44.7688 27.6861 44.6344 27.3755C44.5003 27.0649 44.3032 26.7831 44.0554 26.5466C43.8076 26.31 43.5137 26.1233 43.1906 25.9973C42.8675 25.8713 42.5217 25.8085 42.1733 25.8126C39.0556 25.8293 36.0127 26.7378 33.4288 28.4233C30.8449 30.1088 28.8356 32.496 27.6545 35.2835C26.4734 38.071 26.1733 41.1342 26.7922 44.0863C27.411 47.0385 28.9211 49.7472 31.1318 51.8713C33.3426 53.995 36.155 55.4388 39.2143 56.0204C42.2732 56.6016 45.4423 56.2947 48.321 55.1382C51.1997 53.9816 53.6597 52.0275 55.39 49.5219C57.1204 47.0162 58.0436 44.0715 58.0436 41.0596C58.0436 40.9853 58.0386 40.9156 58.0325 40.8443C58.0386 40.773 58.0436 40.7018 58.0436 40.629C58.0332 40.1335 58.1254 39.641 58.3148 39.1801C58.5039 38.7194 58.7866 38.2997 59.1454 37.946C59.5047 37.5919 59.9334 37.3106 60.4063 37.1187C60.8793 36.9268 61.3876 36.8279 61.9004 36.8279C62.4133 36.8279 62.9216 36.9268 63.3945 37.1187C63.8675 37.3106 64.2962 37.5919 64.6554 37.946C65.0143 38.2997 65.297 38.7194 65.486 39.1801C65.6754 39.641 65.7677 40.1335 65.7573 40.629C65.7642 46.6796 63.285 52.4852 58.8642 56.7709C56.7208 58.8983 54.1579 60.5889 51.3269 61.7436C48.4958 62.8982 45.4538 63.4928 42.3807 63.4928C39.308 63.4928 36.2661 62.8982 33.435 61.7436C30.604 60.5889 28.0411 58.8983 25.8976 56.7709C21.4828 52.4814 19.0046 46.6781 19.0046 40.629C19.0046 34.58 21.4828 28.7767 25.8976 24.4872C28.0428 22.3625 30.6057 20.6734 33.4361 19.5191C36.2664 18.3647 39.3069 17.7684 42.3792 17.7653C42.6155 17.7646 42.8506 17.7332 43.0784 17.6717C45.3197 17.3396 47.3548 16.2198 48.7939 14.5272C50.2331 12.8344 50.9746 10.688 50.8762 8.49967C50.7779 6.31127 49.8462 4.23504 48.2607 2.66926C46.6752 1.10345 44.5472 0.158338 42.2847 0.0152174C42.1902 0.00527238 42.0949 0.000192666 41.9996 0C41.9466 0 41.894 0 41.8409 0C41.8148 0 41.7895 0 41.7641 0C41.7388 0 41.7126 0.00296718 41.6873 0.00370949C36.2142 0.0452919 30.8037 1.13309 25.7678 3.2044C20.7319 5.27568 16.1703 8.28952 12.3459 12.0721C4.43816 19.7616 0 30.1608 0 41.0002C0 51.8393 4.43816 62.2383 12.3459 69.9279C16.2057 73.7489 20.8177 76.7857 25.9105 78.8586C31.0033 80.9318 36.4739 82 42.0004 82C47.5269 82 52.9973 80.9318 58.0905 78.8586C63.1832 76.7857 67.795 73.7489 71.6549 69.9279L71.6541 69.9297Z" fill="#B1B695"/>
</svg>
