<svg xmlns="http://www.w3.org/2000/svg" xmlns:xlink="http://www.w3.org/1999/xlink" version="1.1" width="1000" height="1000" viewBox="0 0 1000 1000" xml:space="preserve">
<desc>Created with Fabric.js 3.5.0</desc>
<defs>
</defs>
<rect x="0" y="0" width="100%" height="100%" fill="rgba(255,255,255,0)"/>
<g transform="matrix(2.9385 0 0 2.9385 379.0594 424.5628)" id="179653">
<path style="stroke: none; stroke-width: 1; stroke-dasharray: none; stroke-linecap: butt; stroke-dashoffset: 0; stroke-linejoin: miter; stroke-miterlimit: 4; is-custom-font: none; font-file-url: none; fill: rgb(94,75,86); fill-rule: nonzero; opacity: 1;" vector-effect="non-scaling-stroke" transform=" translate(-119.6755, -33)" d="M 16.12 65.8 C 12.76 65.8 9.88 65.1867 7.48 63.96 C 5.13333 62.7333 3.32 60.9733 2.04 58.68 C 0.76 56.3867 0.12 53.6133 0.12 50.36 L 0.12 50.36 L 0.12 33.4 C 0.12 30.0933 0.76 27.2933 2.04 25 C 3.32 22.7067 5.13333 20.9733 7.48 19.8 C 9.88 18.5733 12.76 17.96 16.12 17.96 C 19.4267 17.96 22.2267 18.4667 24.52 19.48 C 26.8667 20.4933 28.6533 22.04 29.88 24.12 C 31.1067 26.1467 31.72 28.7333 31.72 31.88 L 31.72 31.88 L 31.72 36.76 L 19.16 36.76 L 19.16 31.48 C 19.16 30.2533 19.0267 29.32 18.76 28.68 C 18.5467 27.9867 18.2 27.5067 17.72 27.24 C 17.2933 26.9733 16.76 26.84 16.12 26.84 C 15.48 26.84 14.9467 27.0267 14.52 27.4 C 14.0933 27.72 13.7733 28.28 13.56 29.08 C 13.3467 29.8267 13.24 30.8933 13.24 32.28 L 13.24 32.28 L 13.24 51.48 C 13.24 53.56 13.48 54.9733 13.96 55.72 C 14.4933 56.4667 15.24 56.84 16.2 56.84 C 16.8933 56.84 17.4533 56.7067 17.88 56.44 C 18.3067 56.12 18.6267 55.64 18.84 55 C 19.0533 54.3067 19.16 53.4 19.16 52.28 L 19.16 52.28 L 19.16 46.12 L 31.72 46.12 L 31.72 51.72 C 31.72 54.8133 31.08 57.4267 29.8 59.56 C 28.5733 61.64 26.7867 63.2133 24.44 64.28 C 22.1467 65.2933 19.3733 65.8 16.12 65.8 z M 38.5819 65 L 38.5819 0.199995 L 51.5419 0.199995 L 51.5419 22.84 C 53.2485 21.1333 55.0352 19.9067 56.9019 19.16 C 58.7685 18.36 60.7685 17.96 62.9019 17.96 C 64.7685 17.96 66.3152 18.44 67.5419 19.4 C 68.8219 20.3067 69.7819 21.5867 70.4219 23.24 C 71.0619 24.84 71.3819 26.68 71.3819 28.76 L 71.3819 28.76 L 71.3819 65 L 58.4219 65 L 58.4219 30.6 C 58.4219 29.48 58.2352 28.6267 57.8619 28.04 C 57.4885 27.4533 56.7952 27.16 55.7819 27.16 C 55.2485 27.16 54.6085 27.32 53.8619 27.64 C 53.1152 27.9067 52.3419 28.3067 51.5419 28.84 L 51.5419 28.84 L 51.5419 65 L 38.5819 65 z M 88.725 65.8 C 86.3783 65.8 84.405 65.24 82.805 64.12 C 81.205 63 80.005 61.5867 79.205 59.88 C 78.405 58.12 78.005 56.3333 78.005 54.52 C 78.005 51.64 78.565 49.2133 79.685 47.24 C 80.8583 45.2667 82.3783 43.6133 84.245 42.28 C 86.1117 40.9467 88.165 39.8267 90.405 38.92 C 92.645 37.96 94.8583 37.1067 97.045 36.36 L 97.045 36.36 L 97.045 31.72 C 97.045 30.92 96.965 30.2267 96.805 29.64 C 96.645 29 96.3783 28.52 96.005 28.2 C 95.6317 27.8267 95.0717 27.64 94.325 27.64 C 93.5783 27.64 92.9917 27.8 92.565 28.12 C 92.1917 28.44 91.925 28.8933 91.765 29.48 C 91.605 30.0133 91.4983 30.6267 91.445 31.32 L 91.445 31.32 L 91.125 34.68 L 78.965 34.2 C 79.2317 28.6533 80.6983 24.5733 83.365 21.96 C 86.085 19.2933 90.1383 17.96 95.525 17.96 C 100.218 17.96 103.712 19.2667 106.005 21.88 C 108.352 24.44 109.525 27.7733 109.525 31.88 L 109.525 31.88 L 109.525 53.48 C 109.525 55.4 109.552 57.08 109.605 58.52 C 109.712 59.96 109.818 61.2133 109.925 62.28 C 110.085 63.3467 110.218 64.2533 110.325 65 L 110.325 65 L 98.645 65 C 98.485 63.7733 98.2983 62.44 98.085 61 C 97.8717 59.56 97.7117 58.7067 97.605 58.44 C 97.0717 60.36 96.0583 62.0667 94.565 63.56 C 93.125 65.0533 91.1783 65.8 88.725 65.8 z M 93.365 57 C 93.8983 57 94.3783 56.8933 94.805 56.68 C 95.285 56.4667 95.7117 56.1733 96.085 55.8 C 96.4583 55.4267 96.7783 55.0533 97.045 54.68 L 97.045 54.68 L 97.045 42.04 C 95.9783 42.68 94.9917 43.3467 94.085 44.04 C 93.1783 44.68 92.405 45.4 91.765 46.2 C 91.125 47 90.6183 47.88 90.245 48.84 C 89.925 49.7467 89.765 50.7867 89.765 51.96 C 89.765 53.5067 90.085 54.7333 90.725 55.64 C 91.365 56.5467 92.245 57 93.365 57 z M 117.412 65 L 117.412 18.76 L 130.452 18.76 L 130.452 26.44 C 131.945 23.7733 133.439 21.7467 134.932 20.36 C 136.425 18.92 138.239 18.2 140.372 18.2 C 140.799 18.2 141.172 18.2267 141.492 18.28 C 141.812 18.28 142.105 18.3333 142.372 18.44 L 142.372 18.44 L 142.372 31.4 C 141.785 31.1333 141.119 30.92 140.372 30.76 C 139.679 30.5467 138.932 30.44 138.132 30.44 C 136.639 30.44 135.252 30.84 133.972 31.64 C 132.692 32.44 131.519 33.5333 130.452 34.92 L 130.452 34.92 L 130.452 65 L 117.412 65 z M 147.877 65 L 147.877 18.76 L 160.677 18.76 L 160.677 22.44 C 162.384 20.7867 164.144 19.6133 165.957 18.92 C 167.824 18.2267 169.717 17.88 171.637 17.88 C 173.504 17.88 175.104 18.36 176.437 19.32 C 177.824 20.2267 178.864 21.5867 179.557 23.4 C 181.37 21.3733 183.264 19.96 185.237 19.16 C 187.264 18.3067 189.29 17.88 191.317 17.88 C 193.13 17.88 194.704 18.3333 196.037 19.24 C 197.37 20.0933 198.41 21.3733 199.157 23.08 C 199.904 24.7333 200.277 26.7333 200.277 29.08 L 200.277 29.08 L 200.277 65 L 187.477 65 L 187.477 30.44 C 187.477 29.16 187.237 28.2533 186.757 27.72 C 186.33 27.1333 185.664 26.84 184.757 26.84 C 184.224 26.84 183.557 27 182.757 27.32 C 181.957 27.5867 181.184 27.9867 180.437 28.52 C 180.437 28.6267 180.437 28.7333 180.437 28.84 C 180.437 28.8933 180.437 28.9733 180.437 29.08 L 180.437 29.08 L 180.437 65 L 167.797 65 L 167.797 30.44 C 167.797 29.16 167.557 28.2533 167.077 27.72 C 166.597 27.1333 165.904 26.84 164.997 26.84 C 164.41 26.84 163.717 27 162.917 27.32 C 162.17 27.5867 161.424 27.9867 160.677 28.52 L 160.677 28.52 L 160.677 65 L 147.877 65 z M 217.631 65.8 C 215.285 65.8 213.311 65.24 211.711 64.12 C 210.111 63 208.911 61.5867 208.111 59.88 C 207.311 58.12 206.911 56.3333 206.911 54.52 C 206.911 51.64 207.471 49.2133 208.591 47.24 C 209.765 45.2667 211.285 43.6133 213.151 42.28 C 215.018 40.9467 217.071 39.8267 219.311 38.92 C 221.551 37.96 223.765 37.1067 225.951 36.36 L 225.951 36.36 L 225.951 31.72 C 225.951 30.92 225.871 30.2267 225.711 29.64 C 225.551 29 225.285 28.52 224.911 28.2 C 224.538 27.8267 223.978 27.64 223.231 27.64 C 222.485 27.64 221.898 27.8 221.471 28.12 C 221.098 28.44 220.831 28.8933 220.671 29.48 C 220.511 30.0133 220.405 30.6267 220.351 31.32 L 220.351 31.32 L 220.031 34.68 L 207.871 34.2 C 208.138 28.6533 209.605 24.5733 212.271 21.96 C 214.991 19.2933 219.045 17.96 224.431 17.96 C 229.125 17.96 232.618 19.2667 234.911 21.88 C 237.258 24.44 238.431 27.7733 238.431 31.88 L 238.431 31.88 L 238.431 53.48 C 238.431 55.4 238.458 57.08 238.511 58.52 C 238.618 59.96 238.725 61.2133 238.831 62.28 C 238.991 63.3467 239.125 64.2533 239.231 65 L 239.231 65 L 227.551 65 C 227.391 63.7733 227.205 62.44 226.991 61 C 226.778 59.56 226.618 58.7067 226.511 58.44 C 225.978 60.36 224.965 62.0667 223.471 63.56 C 222.031 65.0533 220.085 65.8 217.631 65.8 z M 222.271 57 C 222.805 57 223.285 56.8933 223.711 56.68 C 224.191 56.4667 224.618 56.1733 224.991 55.8 C 225.365 55.4267 225.685 55.0533 225.951 54.68 L 225.951 54.68 L 225.951 42.04 C 224.885 42.68 223.898 43.3467 222.991 44.04 C 222.085 44.68 221.311 45.4 220.671 46.2 C 220.031 47 219.525 47.88 219.151 48.84 C 218.831 49.7467 218.671 50.7867 218.671 51.96 C 218.671 53.5067 218.991 54.7333 219.631 55.64 C 220.271 56.5467 221.151 57 222.271 57 z" stroke-linecap="round"/>
</g>
<g transform="matrix(2.4465 0 0 2.4465 870.2565 438.2904)" id="286606">
<path style="stroke: none; stroke-width: 1; stroke-dasharray: none; stroke-linecap: butt; stroke-dashoffset: 0; stroke-linejoin: miter; stroke-miterlimit: 4; is-custom-font: none; font-file-url: none; fill: rgb(177,182,149); fill-rule: nonzero; opacity: 1;" vector-effect="non-scaling-stroke" transform=" translate(-42, -41)" d="M 71.6542 69.9297 C 79.5749 62.2483 84.0153 51.8438 84 41.0017 C 83.9915 40.3325 83.7107 39.6934 83.2178 39.2231 C 82.7248 38.7525 82.0602 38.489 81.3675 38.489 C 80.6744 38.489 80.0098 38.7525 79.5169 39.2231 C 79.024 39.6934 78.7431 40.3325 78.7347 41.0017 C 78.7458 50.5032 74.8525 59.6209 67.9103 66.3514 C 64.5402 69.694 60.5112 72.3508 56.0608 74.165 C 51.6108 75.9788 46.8296 76.9133 41.9996 76.9133 C 37.1696 76.9133 32.3884 75.9788 27.9383 74.165 C 23.4881 72.3508 19.4591 69.694 16.089 66.3514 C 9.15603 59.6143 5.26462 50.5002 5.26462 41.0002 C 5.26462 31.4999 9.15603 22.3859 16.089 15.6486 C 19.4395 12.3317 23.4383 9.69033 27.8534 7.87765 C 32.2685 6.06501 37.0122 5.11709 41.8094 5.08888 C 42.8337 5.11987 43.8049 5.53627 44.516 6.24922 C 45.2272 6.96213 45.6217 7.91525 45.6156 8.90526 C 45.6098 9.89528 45.2037 10.8439 44.4841 11.5488 C 43.7646 12.2537 42.7883 12.6591 41.7637 12.6786 C 41.6688 12.6788 41.5739 12.6839 41.4798 12.6938 C 34.1813 12.9209 27.2563 15.8649 22.1526 20.9104 C 16.7627 26.1521 13.7377 33.2406 13.7377 40.629 C 13.7377 48.0176 16.7627 55.1059 22.1526 60.3477 C 24.7857 62.9535 27.9317 65.0242 31.4055 66.4379 C 34.8792 67.8516 38.6107 68.5798 42.38 68.5798 C 46.1492 68.5798 49.8808 67.8516 53.3546 66.4379 C 56.828 65.0242 59.9741 62.9535 62.6073 60.3477 C 68.0055 55.1114 71.0318 48.0194 71.021 40.629 C 71.0322 39.4651 70.8043 38.3101 70.351 37.2315 C 69.8973 36.1531 69.2272 35.172 68.379 34.3451 C 67.5307 33.5181 66.5214 32.8617 65.4092 32.4137 C 64.297 31.9658 63.1041 31.7351 61.8989 31.7351 C 60.6937 31.7351 59.5008 31.9658 58.3886 32.4137 C 57.2764 32.8617 56.2671 33.5181 55.4188 34.3451 C 54.5706 35.172 53.9005 36.1531 53.4468 37.2315 C 52.9935 38.3101 52.7657 39.4651 52.7768 40.629 C 52.7768 40.7033 52.7818 40.773 52.7879 40.8443 C 52.7818 40.9156 52.7768 40.9868 52.7768 41.0596 C 52.7941 43.089 52.1867 45.0777 51.0318 46.7735 C 49.8773 48.4689 48.2273 49.7947 46.2914 50.583 C 44.3554 51.3709 42.2205 51.5858 40.1582 51.2002 C 38.0956 50.8142 36.1981 49.8455 34.7065 48.4162 C 33.2149 46.9869 32.1964 45.1619 31.7802 43.1725 C 31.364 41.1832 31.5689 39.1192 32.3689 37.2426 C 33.1688 35.3658 34.5278 33.761 36.2734 32.6316 C 38.019 31.5023 40.0725 30.8993 42.1733 30.8993 C 42.5217 30.9033 42.8675 30.8405 43.1906 30.7146 C 43.5137 30.5886 43.8076 30.4019 44.0554 30.1653 C 44.3032 29.9287 44.5003 29.647 44.6344 29.3364 C 44.7688 29.0258 44.838 28.6925 44.838 28.3559 C 44.838 28.0193 44.7688 27.6861 44.6344 27.3755 C 44.5003 27.0649 44.3032 26.7831 44.0554 26.5466 C 43.8076 26.31 43.5137 26.1233 43.1906 25.9973 C 42.8675 25.8713 42.5217 25.8085 42.1733 25.8126 C 39.0556 25.8293 36.0127 26.7378 33.4288 28.4233 C 30.8449 30.1088 28.8356 32.496 27.6545 35.2835 C 26.4734 38.071 26.1733 41.1342 26.7922 44.0863 C 27.411 47.0385 28.9211 49.7472 31.1318 51.8713 C 33.3426 53.995 36.155 55.4388 39.2143 56.0204 C 42.2732 56.6016 45.4423 56.2947 48.321 55.1382 C 51.1997 53.9816 53.6597 52.0275 55.39 49.5219 C 57.1204 47.0162 58.0436 44.0715 58.0436 41.0596 C 58.0436 40.9853 58.0386 40.9156 58.0325 40.8443 C 58.0386 40.773 58.0436 40.7018 58.0436 40.629 C 58.0332 40.1335 58.1254 39.641 58.3148 39.18 C 58.5039 38.7194 58.7866 38.2997 59.1454 37.946 C 59.5047 37.5919 59.9334 37.3106 60.4063 37.1187 C 60.8793 36.9268 61.3876 36.8279 61.9004 36.8279 C 62.4133 36.8279 62.9216 36.9268 63.3945 37.1187 C 63.8675 37.3106 64.2962 37.5919 64.6554 37.946 C 65.0143 38.2997 65.297 38.7194 65.486 39.18 C 65.6754 39.641 65.7677 40.1335 65.7573 40.629 C 65.7642 46.6796 63.285 52.4852 58.8642 56.7709 C 56.7208 58.8983 54.1579 60.5889 51.3269 61.7436 C 48.4958 62.8982 45.4538 63.4928 42.3807 63.4928 C 39.308 63.4928 36.2661 62.8982 33.435 61.7436 C 30.604 60.5889 28.0411 58.8983 25.8976 56.7709 C 21.4828 52.4814 19.0046 46.6781 19.0046 40.629 C 19.0046 34.58 21.4828 28.7767 25.8976 24.4872 C 28.0428 22.3625 30.6057 20.6734 33.4361 19.5191 C 36.2664 18.3647 39.3069 17.7684 42.3792 17.7653 C 42.6155 17.7646 42.8506 17.7332 43.0784 17.6717 C 45.3197 17.3396 47.3548 16.2198 48.7939 14.5272 C 50.2331 12.8344 50.9746 10.688 50.8762 8.49967 C 50.7779 6.31128 49.8462 4.23504 48.2607 2.66926 C 46.6752 1.10345 44.5472 0.158338 42.2847 0.0152174 C 42.1902 0.00527238 42.0949 0.000192666 41.9996 0 C 41.9466 0 41.894 0 41.841 0 C 41.8148 0 41.7895 0 41.7641 0 C 41.7388 0 41.7126 0.00296718 41.6873 0.00370949 C 36.2142 0.0452919 30.8037 1.13309 25.7678 3.2044 C 20.7319 5.27568 16.1703 8.28952 12.3459 12.0721 C 4.43816 19.7616 0 30.1608 0 41.0002 C 0 51.8393 4.43816 62.2383 12.3459 69.9279 C 16.2057 73.7489 20.8177 76.7857 25.9105 78.8586 C 31.0033 80.9318 36.4739 82 42.0004 82 C 47.5269 82 52.9973 80.9318 58.0905 78.8586 C 63.1832 76.7857 67.795 73.7489 71.6549 69.9279 L 71.6542 69.9297 Z" stroke-linecap="round"/>
</g>
</svg>